<svg xmlns="http://www.w3.org/2000/svg" width="192" height="192" viewBox="0 0 192 192" version="1.1">
	<path d="M 77.270 16.703 C 76.044 16.940, 74.042 18.566, 72.821 20.317 C 71.599 22.068, 70.015 23.860, 69.300 24.300 C 68.585 24.740, 68.036 25.865, 68.079 26.800 C 68.127 27.842, 68.353 28.016, 68.662 27.250 C 68.940 26.563, 69.606 26, 70.142 26 C 70.679 26, 70.840 26.450, 70.500 27 C 70.160 27.550, 70.359 28, 70.941 28 C 71.523 28, 72 27.380, 72 26.622 C 72 25.865, 72.727 24.642, 73.615 23.905 C 74.999 22.756, 75.500 22.899, 77.130 24.912 C 79.378 27.688, 78.161 30, 74.450 30 C 71.835 30, 67.764 34.535, 68.226 36.933 C 68.667 39.223, 71.500 38.851, 71.501 36.504 C 71.503 34.786, 72.061 34.554, 75.501 34.842 C 77.701 35.026, 80.175 35.759, 81 36.470 C 81.825 37.182, 83.513 38.072, 84.750 38.449 C 87.838 39.390, 87.571 40.569, 83.846 42.427 C 80.233 44.229, 78 44.448, 78 43 C 78 42.450, 77.048 42, 75.883 42 C 74.235 42, 73.887 42.458, 74.308 44.071 C 74.800 45.952, 74.467 46.115, 70.675 45.851 C 66.865 45.586, 66.527 45.754, 66.813 47.780 C 67.013 49.200, 66.601 50, 65.670 50 C 64.869 50, 63.914 50.788, 63.548 51.750 C 63.050 53.058, 63.170 53.214, 64.023 52.368 C 64.873 51.524, 65.846 51.560, 67.832 52.507 C 69.300 53.206, 74.213 54.359, 78.750 55.069 C 83.287 55.779, 87 56.729, 87 57.180 C 87 57.631, 86.325 58, 85.500 58 C 84.667 58, 84 58.889, 84 60 C 84 61.333, 84.667 62, 86 62 C 87.100 62, 88.034 61.663, 88.077 61.250 C 88.119 60.837, 88.323 59.600, 88.531 58.500 C 89.661 52.525, 89.317 47.686, 87.827 48.607 C 85.877 49.812, 79 50.793, 79 49.866 C 79 49.390, 79.605 49, 80.345 49 C 81.085 49, 82.542 48.058, 83.584 46.907 C 84.625 45.756, 86.338 44.354, 87.390 43.791 C 88.953 42.955, 89.192 43.057, 88.695 44.352 C 88.361 45.223, 88.471 46.173, 88.939 46.462 C 89.407 46.752, 90.087 46.216, 90.449 45.272 C 91.001 43.833, 91.251 43.787, 91.993 44.988 C 92.747 46.208, 93.156 46.169, 94.753 44.724 C 96.199 43.415, 96.899 43.299, 97.814 44.214 C 98.466 44.866, 99 45.985, 99 46.700 C 99 47.415, 99.360 48, 99.799 48 C 100.239 48, 100.411 46.397, 100.183 44.438 C 99.851 41.602, 99.434 41.016, 98.133 41.566 C 94.577 43.070, 92.412 43.045, 90.500 41.477 C 89.271 40.469, 89.078 40.008, 90 40.280 C 90.825 40.524, 92.384 40.408, 93.464 40.024 C 94.977 39.484, 94.475 39.172, 91.275 38.660 C 87.237 38.014, 87.103 37.868, 86.431 33.387 C 85.722 28.661, 86.838 26.617, 89.558 27.661 C 90.240 27.922, 91.092 27.661, 91.451 27.080 C 91.862 26.415, 91.467 26.267, 90.388 26.681 C 89.224 27.128, 88.904 26.964, 89.395 26.170 C 90.803 23.891, 88.115 25.039, 86.128 27.564 C 84.837 29.206, 84.245 31.184, 84.483 33.064 C 84.849 35.956, 83.575 37.186, 82.736 34.750 C 82.176 33.123, 83.895 27.894, 85.587 26.080 C 86.320 25.294, 88.905 24.625, 91.385 24.580 C 95.400 24.508, 95.712 24.662, 94.429 26.079 C 92.602 28.097, 92.622 29.441, 94.500 31 C 95.741 32.030, 96.011 31.922, 96.064 30.372 C 96.109 29.063, 96.619 29.486, 97.761 31.782 C 99.295 34.866, 99.280 35.258, 97.510 38.282 C 95.762 41.271, 95.756 41.396, 97.426 40.035 C 98.415 39.229, 99.635 37.654, 100.139 36.535 C 100.880 34.886, 100.967 35.072, 100.600 37.511 C 100.232 39.947, 100.605 40.737, 102.553 41.657 C 104.697 42.669, 104.858 42.602, 104.027 41.050 C 103.409 39.896, 103.488 38.912, 104.259 38.141 C 105.147 37.253, 104.540 36.245, 101.713 33.915 C 99.671 32.231, 98 30.212, 98 29.427 C 98 28.642, 97.232 28, 96.294 28 C 95.117 28, 95.918 26.760, 98.878 24 C 101.237 21.800, 103.580 20, 104.084 20 C 104.588 20, 105 19.325, 105 18.500 C 105 16.729, 104.788 16.713, 98.178 17.966 C 94.232 18.715, 92.292 18.602, 89.574 17.466 C 86.197 16.055, 81.978 15.794, 77.270 16.703 M 91.813 23.683 C 92.534 23.972, 93.397 23.936, 93.729 23.604 C 94.061 23.272, 93.471 23.036, 92.417 23.079 C 91.252 23.127, 91.015 23.364, 91.813 23.683 M 119.078 28.406 C 117.968 29.743, 113.448 30.900, 107.750 31.305 C 106.237 31.412, 105 31.889, 105 32.363 C 105 32.838, 106.463 32.930, 108.250 32.566 C 117.608 30.663, 118.548 30.635, 117.163 32.304 C 116.443 33.171, 115.257 33.652, 114.528 33.372 C 113.799 33.093, 112.908 33.339, 112.549 33.920 C 112.138 34.585, 112.533 34.733, 113.612 34.319 C 114.776 33.872, 115.096 34.036, 114.605 34.830 C 114.207 35.474, 113.234 36, 112.441 36 C 111.648 36, 111 36.450, 111 37 C 111 37.550, 112.520 38, 114.378 38 C 116.235 38, 118.321 38.681, 119.012 39.514 C 120.083 40.805, 119.916 40.971, 117.884 40.640 C 116.573 40.426, 115.020 40.631, 114.434 41.096 C 113.847 41.560, 111.973 42.047, 110.268 42.176 L 107.169 42.413 109.585 45.283 C 110.913 46.862, 112 49.322, 112 50.751 L 112 53.349 109.250 50.961 C 107.737 49.648, 105.436 47.433, 104.136 46.037 C 102.177 43.935, 101.899 43.843, 102.509 45.500 C 103.474 48.120, 103.138 55.951, 101.975 57.939 C 101.225 59.220, 101.055 59.105, 101.030 57.300 C 101.014 56.090, 100.398 54.740, 99.661 54.300 C 98.925 53.860, 97.814 52.600, 97.192 51.500 C 96.570 50.400, 96.047 50.047, 96.030 50.715 C 96.014 51.384, 94.647 53.472, 92.993 55.355 C 90.753 57.907, 90.338 58.916, 91.367 59.310 C 93.273 60.042, 94.342 66.493, 92.979 69.039 C 92.371 70.176, 89.442 72.661, 86.471 74.562 C 82.511 77.095, 81.236 78.452, 81.694 79.645 C 82.126 80.771, 81.884 81.115, 80.909 80.761 C 80.134 80.480, 79.645 79.631, 79.821 78.875 C 80.073 77.799, 79.876 77.762, 78.914 78.708 C 77.942 79.662, 77.957 80.243, 78.986 81.483 C 80.133 82.865, 80.479 82.876, 81.912 81.579 C 82.806 80.770, 85.427 79.997, 87.736 79.861 C 90.240 79.713, 92.153 79.044, 92.476 78.203 C 92.773 77.427, 93.651 77.036, 94.426 77.333 C 96.937 78.297, 96.932 75.290, 94.421 74.146 C 91.757 72.932, 91.023 70.688, 93.615 71.683 C 94.850 72.156, 95.093 71.854, 94.646 70.401 C 94.306 69.297, 94.847 67.473, 95.936 66.049 C 97.572 63.911, 98.024 63.775, 99.475 64.979 C 100.390 65.739, 100.925 67.179, 100.663 68.180 C 100.401 69.181, 100.595 70, 101.094 70 C 101.592 70, 102 68.200, 102 66 C 102 63.800, 102.450 62, 103 62 C 103.550 62, 104.029 62.563, 104.063 63.250 C 104.098 63.938, 104.534 63.487, 105.032 62.249 C 106.106 59.576, 112.579 56.168, 113.939 57.560 C 114.502 58.135, 114.053 59.470, 112.784 61 C 111.429 62.633, 110.558 63.067, 110.272 62.250 C 109.673 60.543, 107.340 60.671, 106.658 62.449 C 106.286 63.418, 106.582 63.714, 107.551 63.342 C 109.069 62.760, 109.151 63.019, 109.488 69.500 C 109.602 71.700, 109.502 72.938, 109.265 72.250 C 108.621 70.386, 107.002 70.741, 106.985 72.750 C 106.975 73.805, 106.677 74.074, 106.235 73.427 C 105.202 71.919, 102 70.863, 102 72.031 C 102 72.564, 102.408 73, 102.906 73 C 104.544 73, 102.807 76.998, 101.133 77.079 C 100.097 77.129, 99.957 77.342, 100.750 77.662 C 101.438 77.940, 102 78.531, 102 78.976 C 102 80.198, 98.980 81.106, 97.660 80.282 C 97.022 79.884, 95.600 79.434, 94.500 79.282 C 92.733 79.039, 92.791 79.236, 95 80.981 C 96.375 82.067, 96.911 82.966, 96.191 82.978 C 95.471 82.990, 95.118 83.382, 95.407 83.849 C 95.911 84.664, 91.656 89, 90.353 89 C 90.005 89, 89.107 89.787, 88.358 90.750 C 87.090 92.378, 87.037 92.361, 87.592 90.500 C 88.060 88.931, 87.967 88.813, 87.160 89.952 C 86.595 90.751, 86.370 91.789, 86.660 92.259 C 87.612 93.800, 87.750 98.037, 86.865 98.583 C 86.389 98.877, 86 98.101, 86 96.859 C 86 95.176, 85.711 94.889, 84.867 95.733 C 83.431 97.169, 84.463 100, 86.423 100 C 88.241 100, 92.842 95.531, 94.014 92.627 C 94.832 90.602, 94.874 90.620, 94.893 93 C 94.903 94.375, 94.264 97.300, 93.471 99.500 C 92.679 101.700, 92.023 104.989, 92.015 106.809 C 92.007 108.629, 91.581 109.859, 91.069 109.543 C 90.557 109.226, 89.856 109.425, 89.510 109.984 C 89.165 110.543, 89.359 111, 89.941 111 C 91.645 111, 91.159 113.771, 89.206 115.193 C 87.988 116.080, 87.425 117.765, 87.456 120.433 C 87.497 124.120, 87.281 124.418, 84 125.178 C 75.562 127.133, 63.522 132.388, 59.725 135.773 C 58.081 137.239, 57.669 137.083, 54.182 133.678 C 50.513 130.095, 47.693 129.070, 46.558 130.907 C 46.249 131.405, 46.847 131.591, 47.885 131.320 C 49.065 131.011, 51.005 131.926, 53.052 133.755 C 55.853 136.258, 56.438 137.598, 57.070 142.961 C 57.487 146.494, 58.507 149.936, 59.405 150.834 C 60.794 152.223, 61 152.233, 61 150.914 C 61 150.081, 60.445 148.845, 59.767 148.167 C 58.790 147.190, 58.983 146.817, 60.698 146.369 C 62.029 146.021, 62.655 145.264, 62.324 144.401 C 62.028 143.631, 62.176 143, 62.652 143 C 63.129 143, 64.149 141.988, 64.920 140.750 C 66.190 138.711, 66.170 138.625, 64.709 139.833 C 62.840 141.377, 59 140.508, 59 138.541 C 59 136.938, 63.429 135.684, 66.100 136.532 C 67.161 136.868, 67.764 137.573, 67.440 138.097 C 67.116 138.621, 67.222 138.985, 67.676 138.906 C 69.985 138.505, 70.683 139.210, 70.245 141.500 C 69.954 143.020, 70.228 144, 70.942 144 C 71.589 144, 71.826 144.472, 71.470 145.049 C 71.034 145.754, 70.297 145.672, 69.219 144.799 C 68.200 143.973, 67.873 143.929, 68.323 144.679 C 68.761 145.409, 68.168 146.047, 66.765 146.356 C 65.519 146.631, 66.349 146.770, 68.610 146.665 C 70.871 146.560, 73.250 147.042, 73.899 147.737 C 75.564 149.519, 78.070 149.347, 77.362 147.500 C 77.036 146.651, 77.338 146, 78.060 146 C 78.760 146, 79.044 145.711, 78.691 145.357 C 78.337 145.004, 77.328 145.313, 76.448 146.043 C 75.111 147.153, 74.698 147.135, 73.939 145.936 C 72.455 143.590, 72.752 143.429, 78.565 143.429 C 81.625 143.429, 83.520 143.670, 82.776 143.964 C 81.730 144.379, 81.868 144.936, 83.385 146.424 C 84.703 147.716, 85.159 147.856, 84.773 146.852 C 83.821 144.370, 87.311 143.018, 92.662 143.796 C 95.323 144.183, 98.175 144.439, 99 144.365 C 99.825 144.291, 101.273 144.179, 102.219 144.115 C 103.257 144.046, 103.725 143.447, 103.400 142.601 C 102.682 140.729, 104.876 139.476, 106.329 140.929 C 107.201 141.801, 107.119 142.340, 105.992 143.136 C 104.742 144.018, 104.781 144.098, 106.237 143.631 C 107.423 143.250, 108.465 143.933, 109.524 145.786 C 110.915 148.223, 111.008 148.259, 110.433 146.135 C 109.827 143.897, 110.006 143.791, 113.775 144.150 C 116.687 144.428, 117.626 144.190, 117.271 143.265 C 116.656 141.662, 118.222 141.622, 119.800 143.200 C 120.460 143.860, 121 144.030, 121 143.578 C 121 143.125, 121.675 143.315, 122.500 144 C 123.325 144.685, 124 145.587, 124 146.006 C 124 147.341, 120.215 147.811, 118.938 146.634 C 118.019 145.788, 117.869 145.790, 118.348 146.645 C 119.079 147.952, 116.926 149, 113.512 149 C 111.680 149, 111.298 149.424, 111.710 151 C 112.182 152.804, 111.741 153, 107.198 153 C 104.429 153, 101.425 153.283, 100.522 153.630 C 99.417 154.054, 98.717 153.632, 98.378 152.338 C 98.022 150.976, 96.946 150.390, 94.688 150.327 C 92.560 150.268, 92.266 150.390, 93.804 150.696 C 96.561 151.243, 98.300 155.207, 97.776 159.750 C 97.409 162.940, 98.379 164.211, 99.303 161.750 C 99.577 161.019, 100.186 161.538, 100.769 163 C 101.318 164.375, 101.707 165.573, 101.633 165.662 C 101.560 165.750, 99.036 165.374, 96.024 164.825 C 90.829 163.879, 84.084 161.125, 86.750 161.040 C 87.438 161.018, 88 160.086, 88 158.968 C 88 157.850, 88.652 155.375, 89.449 153.468 C 90.512 150.923, 90.579 150.019, 89.699 150.070 C 87.874 150.177, 84.323 151.849, 85.750 151.930 C 87.264 152.015, 87.396 156.392, 85.965 159.066 C 84.891 161.073, 82 161.754, 82 160 C 82 159.450, 82.477 159, 83.059 159 C 83.641 159, 83.798 158.482, 83.406 157.849 C 82.909 157.043, 82.315 157.217, 81.429 158.428 C 80.448 159.769, 79.730 159.926, 78.232 159.124 C 77.169 158.555, 73.007 157.178, 68.983 156.062 C 60.743 153.779, 57.978 151.652, 54.849 145.189 C 53.657 142.725, 51.646 139.810, 50.382 138.711 C 48.582 137.146, 48.299 136.309, 49.077 134.856 C 49.623 133.835, 49.942 132.963, 49.785 132.919 C 45.382 131.664, 39.946 134.079, 40.035 137.250 C 40.055 137.938, 40.714 137.375, 41.500 136 C 42.591 134.092, 42.938 133.914, 42.965 135.250 C 42.986 136.304, 43.773 137, 44.944 137 C 47.948 137, 52.207 141.175, 51.047 142.982 C 50.247 144.228, 49.638 144.028, 47.243 141.732 C 45.674 140.230, 43.965 139.010, 43.445 139.021 C 42.925 139.033, 47.048 143.420, 52.607 148.771 C 58.166 154.122, 62.968 159.175, 63.278 160 C 63.622 160.915, 63.873 161.013, 63.921 160.250 C 64.022 158.653, 66.505 158.684, 71.267 160.342 C 74.916 161.613, 74.979 161.715, 73.267 163.577 C 71.420 165.587, 63.667 166.428, 64.756 164.500 C 65.066 163.950, 64.966 163.820, 64.533 164.211 C 63.027 165.570, 44.509 150.945, 42.820 147.063 C 42.211 145.662, 42.133 145.661, 42.070 147.050 C 42.032 147.902, 42.474 149.074, 43.053 149.653 C 43.791 150.391, 43.117 152.523, 40.803 156.768 C 38.986 160.102, 37.842 163.173, 38.260 163.592 C 38.679 164.011, 39.623 163.531, 40.359 162.524 C 41.762 160.605, 44 161.173, 44 163.448 C 44 164.179, 44.783 164.715, 45.741 164.639 C 47.004 164.538, 47.623 165.460, 47.997 168 C 48.330 170.256, 48.798 171.056, 49.315 170.250 C 49.757 169.563, 50.827 169, 51.694 169 C 53.275 169, 58 173.414, 58 174.891 C 58 175.324, 59.685 175.620, 61.744 175.548 C 64.614 175.448, 65.573 174.961, 65.852 173.459 C 66.466 170.147, 67.984 168.921, 70.082 170.044 C 71.583 170.847, 71.839 170.743, 71.371 169.523 C 70.939 168.399, 71.469 168, 73.393 168 C 75.333 168, 76 168.511, 76 170 C 76 171.100, 75.475 172, 74.833 172 C 74.192 172, 73.956 172.289, 74.309 172.643 C 74.663 172.996, 75.638 172.716, 76.476 172.020 C 77.693 171.010, 78.302 171.006, 79.500 172 C 81.130 173.352, 81.563 177, 80.094 177 C 79.595 177, 79.423 177.900, 79.710 179 C 80.294 181.234, 81.516 181.592, 82.595 179.845 C 83.075 179.070, 82.865 178.965, 81.958 179.526 C 81.215 179.985, 81.626 178.929, 82.873 177.179 C 84.119 175.428, 85.895 173.608, 86.820 173.133 C 88.835 172.098, 90.997 172.718, 91.008 174.333 C 91.018 175.802, 95.818 178.104, 96.516 176.975 C 96.800 176.515, 96.605 175.874, 96.081 175.550 C 95.558 175.227, 96.238 173.768, 97.591 172.307 C 99.475 170.275, 100.327 169.927, 101.226 170.826 C 101.872 171.472, 103.638 172, 105.150 172 C 106.663 172, 108.260 172.563, 108.700 173.250 C 109.140 173.938, 110.539 175.083, 111.810 175.796 C 114.002 177.026, 114.060 176.981, 112.955 174.916 C 111.942 173.024, 112.161 172.440, 114.646 170.413 C 117.204 168.326, 117.273 168.125, 115.315 168.473 C 114.113 168.686, 112.162 169.378, 110.979 170.011 C 108.729 171.215, 107.390 170.797, 108.378 169.198 C 108.696 168.684, 110.787 167.970, 113.025 167.612 C 115.790 167.170, 116.891 166.567, 116.460 165.731 C 116.112 165.054, 116.755 165.625, 117.891 167 C 119.026 168.375, 119.966 169.805, 119.978 170.177 C 120.016 171.342, 123.424 171.648, 125.125 170.639 C 126.372 169.899, 127.493 170.435, 129.943 172.941 C 131.699 174.738, 133.052 175.598, 132.949 174.854 C 132.494 171.546, 133.040 170.774, 135.500 171.245 C 137.176 171.565, 138 171.274, 138 170.361 C 138 169.613, 138.450 169, 139 169 C 139.550 169, 140 168.298, 140 167.441 C 140 166.584, 140.374 166.113, 140.831 166.396 C 141.288 166.678, 142.282 165.330, 143.040 163.399 C 144.237 160.346, 144.749 159.969, 146.959 160.512 C 150.960 161.494, 154.368 164.032, 153.223 165.177 C 151.646 166.754, 152.970 169.761, 155.448 170.235 C 157.525 170.632, 157.652 170.410, 156.968 167.584 C 155.932 163.308, 153.336 157.493, 150.351 152.763 C 148.538 149.893, 148.135 148.465, 148.915 147.685 C 150.366 146.234, 150.303 144.695, 148.830 145.605 C 148.032 146.098, 147.873 145.773, 148.330 144.582 C 148.699 143.622, 149.007 142.536, 149.015 142.168 C 149.024 141.801, 149.436 142.140, 149.931 142.922 C 151.485 145.377, 153.353 136.450, 152.060 132.743 C 150.383 127.931, 140.882 116, 138.727 116 C 138.243 116, 139.250 117.181, 140.966 118.624 C 144.174 121.324, 144.451 123.372, 141.274 120.910 C 139.889 119.836, 139.938 120.061, 141.500 121.937 C 143.249 124.038, 143.281 124.259, 141.750 123.701 C 139.319 122.814, 139.557 123.693, 142.121 125.065 C 143.794 125.960, 144.076 125.932, 143.457 124.930 C 142.893 124.018, 143.164 123.849, 144.418 124.330 C 145.378 124.699, 146.352 125, 146.582 125 C 146.812 125, 147 125.477, 147 126.059 C 147 126.641, 146.548 126.839, 145.995 126.497 C 145.443 126.155, 146.106 127.974, 147.469 130.538 C 149.764 134.855, 149.839 135.411, 148.474 138.050 C 147.663 139.618, 146.213 141.359, 145.250 141.920 C 144.288 142.481, 144.007 142.953, 144.628 142.970 C 145.248 142.986, 146.324 142.314, 147.020 141.476 C 149.030 139.054, 149.301 140.517, 147.491 144.017 C 146.580 145.779, 146.322 146.919, 146.917 146.551 C 148.669 145.469, 148.160 147.527, 145.996 150.278 C 144.720 151.900, 142.541 153.071, 139.997 153.500 C 137.800 153.872, 132.289 155.740, 127.751 157.652 C 107.101 166.355, 105.171 166.716, 102.352 162.415 C 100.931 160.245, 100.882 159.691, 102.050 158.969 C 102.816 158.496, 103.056 157.747, 102.584 157.304 C 102.112 156.862, 101.525 157.063, 101.280 157.750 C 100.656 159.497, 99 159.315, 99 157.500 C 99 156.477, 100.034 155.995, 102.250 155.985 C 106.891 155.965, 119.362 151.328, 121 149.015 C 121.275 148.626, 126 147.276, 131.500 146.013 C 137 144.751, 141.666 143.578, 141.869 143.407 C 142.530 142.849, 134.906 134.502, 133.686 134.447 C 133.034 134.418, 130.952 133.575, 129.060 132.573 C 125.809 130.852, 125.723 130.676, 127.501 129.376 C 128.536 128.619, 131.396 128, 133.858 128 C 136.319 128, 138.019 127.685, 137.634 127.301 C 137.250 126.916, 134.981 126.722, 132.593 126.869 C 128.963 127.092, 127.925 126.720, 126.257 124.600 C 124.477 122.337, 123.899 122.168, 120.888 123.032 C 116.502 124.290, 116.333 124.270, 116.333 122.500 C 116.333 121.486, 117.348 121, 119.467 121 C 121.190 121, 123.206 120.437, 123.947 119.750 C 125.030 118.745, 125.147 118.758, 124.546 119.817 C 124.051 120.690, 124.536 121.328, 125.984 121.706 C 127.670 122.147, 127.864 122.489, 126.835 123.204 C 125.977 123.799, 126.394 123.842, 128 123.324 C 129.375 122.880, 132.300 122.574, 134.500 122.643 C 137.448 122.736, 137.974 122.556, 136.500 121.955 C 135.400 121.507, 132.662 121.109, 130.417 121.070 C 126.621 121.005, 126.333 120.801, 126.333 118.182 C 126.333 115.398, 126.403 115.366, 131.917 115.604 C 134.988 115.736, 136.150 115.648, 134.500 115.408 C 132.850 115.168, 130.084 114.742, 128.354 114.460 L 125.208 113.948 125.132 100.724 L 125.056 87.500 127.278 90.014 C 128.562 91.467, 130.344 92.404, 131.500 92.233 C 133.195 91.983, 133.132 92.152, 131.082 93.344 L 128.664 94.750 131.332 94.750 C 134.455 94.750, 134.718 93.439, 132.170 90.564 C 131.163 89.429, 129.784 86.700, 129.105 84.500 C 128.426 82.300, 127.614 79.870, 127.302 79.100 C 126.871 78.039, 127.304 78.099, 129.089 79.350 C 130.385 80.257, 132.443 81, 133.663 81 C 134.884 81, 136.175 81.474, 136.533 82.053 C 137.449 83.536, 139.277 82.717, 139.575 80.691 C 139.712 79.756, 139.407 79.249, 138.896 79.564 C 138.385 79.880, 138.226 80.557, 138.543 81.069 C 138.859 81.581, 138.716 82, 138.226 82 C 136.555 82, 136.014 80.688, 137.131 79.342 C 137.970 78.331, 137.907 77.991, 136.872 77.964 C 134.716 77.908, 130.310 73.754, 129.484 71 C 128.757 68.577, 128.795 68.554, 130.696 70.250 C 131.775 71.213, 133.320 72, 134.129 72 C 134.938 72, 136.140 72.540, 136.800 73.200 C 137.694 74.094, 138.289 74.111, 139.133 73.267 C 140.670 71.730, 139.480 69, 137.272 69 C 136.287 69, 134.901 68.072, 134.193 66.937 C 132.788 64.688, 133.456 61, 135.267 61 C 136.086 61, 136.074 60.674, 135.224 59.824 C 134.322 58.922, 134.334 58.283, 135.274 57.084 C 135.948 56.225, 134.974 56.778, 133.110 58.314 C 131.018 60.037, 129.104 60.862, 128.110 60.468 C 127.224 60.117, 125.037 59.584, 123.250 59.284 C 120.378 58.802, 118.534 57, 120.913 57 C 122.580 57, 133.880 46.952, 134.536 44.887 C 134.933 43.636, 134.551 42.162, 133.542 41.047 C 131.855 39.182, 122.119 36, 118.101 36 C 115.154 36, 115.829 33.899, 119.324 32.195 C 121.963 30.909, 122.842 28.638, 121.113 27.570 C 120.626 27.269, 119.710 27.645, 119.078 28.406 M 88.223 30.250 C 87.511 31.120, 87.599 31.867, 88.513 32.708 C 89.544 33.657, 90.085 33.603, 91.035 32.458 C 92.021 31.269, 91.899 30.997, 90.372 30.985 C 88.798 30.972, 88.738 30.815, 90 30 C 90.825 29.467, 90.993 29.024, 90.372 29.015 C 89.752 29.007, 88.785 29.563, 88.223 30.250 M 93.863 33.894 C 94.992 34.610, 94.997 34.834, 93.889 35.204 C 93.070 35.477, 93.414 35.875, 94.776 36.231 C 97.368 36.909, 97.939 34.574, 95.418 33.607 C 93.134 32.730, 92.276 32.889, 93.863 33.894 M 82.500 44 C 82.160 44.550, 80.896 45.007, 79.691 45.015 C 78.017 45.027, 77.833 45.241, 78.911 45.924 C 80.542 46.956, 84.217 45.849, 84.782 44.154 C 85.253 42.740, 83.358 42.612, 82.500 44 M 60.507 46.989 C 60.157 47.555, 60.558 47.723, 61.448 47.382 C 63.180 46.717, 63.497 46, 62.059 46 C 61.541 46, 60.843 46.445, 60.507 46.989 M 107.500 47 C 107.160 47.550, 107.359 48, 107.941 48 C 108.523 48, 109 47.550, 109 47 C 109 46.450, 108.802 46, 108.559 46 C 108.316 46, 107.840 46.450, 107.500 47 M 115 48 C 115 50.214, 115.752 50.461, 118 48.985 C 119.333 48.109, 119.333 47.891, 118 47.015 C 115.752 45.539, 115 45.786, 115 48 M 93.079 50.583 C 93.127 51.748, 93.364 51.985, 93.683 51.188 C 93.972 50.466, 93.936 49.603, 93.604 49.271 C 93.272 48.939, 93.036 49.529, 93.079 50.583 M 56 53 C 56 54.867, 56.267 55.133, 57.200 54.200 C 58.133 53.267, 58.133 52.733, 57.200 51.800 C 56.267 50.867, 56 51.133, 56 53 M 57.490 56.010 C 55.915 57.655, 54.996 59, 55.448 59 C 56.464 59, 61.255 53.922, 60.732 53.399 C 60.524 53.191, 59.065 54.366, 57.490 56.010 M 61.564 55.707 C 61.022 57.132, 61.136 57.247, 62.124 56.267 C 62.808 55.588, 63.115 54.781, 62.807 54.474 C 62.499 54.166, 61.940 54.721, 61.564 55.707 M 50.861 61.059 L 48.500 63.119 51.250 61.444 C 52.763 60.523, 54 59.597, 54 59.385 C 54 58.604, 53.165 59.050, 50.861 61.059 M 61.955 62.064 C 60.755 63.748, 59.182 64.900, 58.460 64.623 C 57.737 64.346, 56.551 64.880, 55.823 65.809 C 54.634 67.329, 54.677 67.361, 56.250 66.128 C 57.488 65.157, 58 65.101, 58 65.937 C 58 66.586, 58.450 66.840, 59 66.500 C 59.550 66.160, 60 66.584, 60 67.441 C 60 68.298, 59.212 69.007, 58.250 69.015 C 56.910 69.027, 56.812 69.229, 57.834 69.876 C 58.882 70.541, 58.779 70.871, 57.353 71.418 C 56.347 71.804, 55.381 71.644, 55.186 71.057 C 54.992 70.476, 54.083 70.002, 53.167 70.005 C 51.978 70.009, 52.361 70.700, 54.500 72.415 C 56.197 73.776, 57.115 75.186, 56.613 75.660 C 56.125 76.122, 55.525 75.938, 55.280 75.250 C 55.034 74.563, 54.331 74, 53.717 74 C 52.898 74, 52.899 74.299, 53.722 75.122 C 54.339 75.739, 54.611 76.976, 54.328 77.872 C 53.881 79.282, 53.958 79.299, 54.906 78 C 55.878 76.667, 56.110 76.667, 56.990 78 C 57.724 79.111, 57.887 78.658, 57.621 76.250 C 57.279 73.153, 58.077 72.402, 61.214 72.870 C 61.607 72.928, 61.694 72.366, 61.407 71.619 C 61.099 70.815, 61.746 70.038, 62.999 69.711 C 64.853 69.226, 65.073 68.540, 64.805 64.079 C 64.637 61.286, 64.418 59, 64.318 59 C 64.218 59, 63.155 60.379, 61.955 62.064 M 118 60.965 C 118 61.496, 116.590 63.536, 114.867 65.499 C 113.144 67.461, 111.959 69.292, 112.234 69.567 C 112.995 70.328, 119 63.137, 119 61.465 C 119 60.659, 118.775 60, 118.500 60 C 118.225 60, 118 60.434, 118 60.965 M 54 63.059 C 54 63.641, 54.450 63.840, 55 63.500 C 55.550 63.160, 56 62.684, 56 62.441 C 56 62.198, 55.550 62, 55 62 C 54.450 62, 54 62.477, 54 63.059 M 97.500 66 C 97.160 66.550, 97.359 67, 97.941 67 C 98.523 67, 99 66.550, 99 66 C 99 65.450, 98.802 65, 98.559 65 C 98.316 65, 97.840 65.450, 97.500 66 M 51.733 67.124 C 52.412 67.808, 53.219 68.115, 53.526 67.807 C 53.834 67.499, 53.279 66.940, 52.293 66.564 C 50.868 66.022, 50.753 66.136, 51.733 67.124 M 104.500 67 C 104.840 67.550, 105.316 68, 105.559 68 C 105.802 68, 106 67.550, 106 67 C 106 66.450, 105.523 66, 104.941 66 C 104.359 66, 104.160 66.450, 104.500 67 M 136 71 C 136 71.550, 136.423 72, 136.941 72 C 137.459 72, 138.160 71.550, 138.500 71 C 138.840 70.450, 138.416 70, 137.559 70 C 136.702 70, 136 70.450, 136 71 M 96.872 72.750 C 95.603 74.369, 95.650 74.390, 97.500 73.033 C 98.600 72.226, 99.688 71.439, 99.917 71.283 C 100.146 71.127, 99.863 71, 99.289 71 C 98.715 71, 97.627 71.787, 96.872 72.750 M 59 76.941 C 59 78.623, 58.523 80, 57.941 80 C 57.359 80, 57.160 80.450, 57.500 81 C 58.218 82.162, 60.056 82.355, 59.882 81.250 C 59.816 80.838, 59.854 80.275, 59.965 80 C 60.626 78.362, 60.545 74.837, 59.836 74.399 C 59.376 74.114, 59 75.259, 59 76.941 M 52.158 78 C 52.158 79.375, 52.385 79.938, 52.662 79.250 C 52.940 78.563, 52.940 77.438, 52.662 76.750 C 52.385 76.063, 52.158 76.625, 52.158 78 M 63.603 79.833 C 63.320 80.292, 63.723 80.667, 64.500 80.667 C 65.277 80.667, 65.680 80.292, 65.397 79.833 C 65.114 79.375, 64.710 79, 64.500 79 C 64.290 79, 63.886 79.375, 63.603 79.833 M 89.500 85 C 89.160 85.550, 89.359 86, 89.941 86 C 90.523 86, 91 85.550, 91 85 C 91 84.450, 90.802 84, 90.559 84 C 90.316 84, 89.840 84.450, 89.500 85 M 55.543 87.931 C 55.226 88.443, 55.425 89.144, 55.984 89.490 C 56.543 89.835, 57 89.416, 57 88.559 C 57 86.802, 56.400 86.544, 55.543 87.931 M 51.211 89.399 C 51.920 90.169, 52.658 90.649, 52.850 90.466 C 53.443 89.902, 51.940 88, 50.902 88 C 50.362 88, 50.501 88.630, 51.211 89.399 M 89.476 92.039 C 88.518 93.589, 90.214 95.104, 91.806 94.120 C 92.837 93.483, 92.803 93.082, 91.636 92.113 C 90.559 91.219, 89.995 91.200, 89.476 92.039 M 108.198 95.653 C 104.726 102.532, 100.873 115.025, 101.558 117.184 C 102.038 118.695, 101.875 119.041, 100.953 118.471 C 100.085 117.934, 99.940 118.094, 100.489 118.983 C 101.002 119.812, 100.432 120.933, 98.894 122.115 C 97.577 123.127, 97.063 123.966, 97.750 123.978 C 98.438 123.990, 99 124.873, 99 125.941 C 99 127.009, 99.450 128.160, 100 128.500 C 100.550 128.840, 100.993 129.654, 100.985 130.309 C 100.975 131.058, 100.697 131.129, 100.235 130.500 C 98.801 128.548, 96.720 128.823, 97.262 130.893 C 97.589 132.143, 97.186 133.098, 96.168 133.489 C 94.810 134.010, 94.780 134.246, 95.976 134.985 C 97.063 135.657, 96.764 136.021, 94.698 136.540 C 91.687 137.295, 91.093 140.003, 93.500 142 C 94.489 142.821, 95 142.874, 95 142.154 C 95 141.554, 95.563 141.260, 96.250 141.502 C 96.938 141.743, 98.565 141.052, 99.868 139.965 C 101.813 138.341, 102.014 137.722, 100.995 136.494 C 99.974 135.263, 100.070 135, 101.544 135 C 102.528 135, 103.040 134.707, 102.682 134.349 C 102.324 133.991, 102.749 133.173, 103.626 132.531 C 105.086 131.464, 105.085 131.227, 103.611 129.754 C 101.791 127.934, 101.561 127, 102.933 127 C 103.446 127, 104.151 127.900, 104.500 129 C 104.849 130.100, 105.603 131, 106.174 131 C 106.746 131, 106.941 130.325, 106.607 129.500 C 106.273 128.675, 105.727 127.325, 105.393 126.500 C 104.949 125.403, 105.463 125, 107.310 125 C 108.698 125, 110.022 124.662, 110.253 124.250 C 110.483 123.838, 110.546 124.034, 110.392 124.686 C 110.238 125.339, 111.038 127.050, 112.170 128.489 C 113.302 129.928, 114.016 131.317, 113.757 131.576 C 112.979 132.355, 109.971 130.856, 110.522 129.964 C 110.803 129.510, 110.564 128.849, 109.992 128.495 C 109.419 128.141, 109.051 128.222, 109.173 128.676 C 109.296 129.129, 109.046 130.531, 108.617 131.792 C 108.046 133.474, 107.328 133.922, 105.919 133.474 C 104.864 133.139, 104 133.316, 104 133.866 C 104 134.417, 105.237 135.055, 106.750 135.284 C 109.264 135.665, 109.216 135.713, 106.191 135.850 C 104.371 135.933, 103.148 136.430, 103.473 136.956 C 103.798 137.482, 104.706 137.666, 105.490 137.365 C 106.424 137.007, 107.140 137.710, 107.565 139.402 C 107.922 140.823, 108.615 141.738, 109.107 141.434 C 109.598 141.130, 110 141.359, 110 141.941 C 110 142.523, 111.125 143, 112.500 143 C 115.321 143, 115.444 142.573, 113.903 138.150 C 113.269 136.332, 112.318 135.244, 111.653 135.575 C 111.019 135.890, 111.374 135.440, 112.441 134.574 C 113.509 133.708, 114.876 133, 115.478 133 C 116.081 133, 116.677 131.650, 116.803 130 C 116.929 128.350, 116.548 127, 115.957 127 C 115.366 127, 115.160 126.550, 115.500 126 C 115.840 125.450, 115.593 125, 114.952 125 C 114.311 125, 114.040 125.661, 114.349 126.468 C 114.659 127.275, 114.529 128.173, 114.061 128.462 C 112.497 129.429, 112.097 126.165, 113.624 124.897 C 114.586 124.099, 114.911 122.780, 114.524 121.240 C 114.093 119.523, 114.262 119.044, 115.114 119.571 C 115.869 120.037, 116.046 119.884, 115.595 119.155 C 114.514 117.405, 113.422 117.760, 112.220 120.250 C 111.624 121.487, 111.105 121.916, 111.068 121.202 C 111.030 120.488, 112.185 118.806, 113.633 117.464 C 116.103 115.175, 116.199 114.759, 115.172 110.762 C 114.570 108.418, 113.774 104.925, 113.404 103 C 113.034 101.075, 111.890 98.911, 110.862 98.191 C 109.356 97.136, 109.204 96.488, 110.078 94.855 C 110.674 93.741, 110.932 92.599, 110.651 92.317 C 110.370 92.036, 109.266 93.537, 108.198 95.653 M 50.386 94.815 C 50.730 95.373, 50.447 96.036, 49.756 96.288 C 49.065 96.540, 49.737 96.691, 51.249 96.623 C 54.554 96.475, 54.588 96.385, 51.879 94.935 C 50.637 94.271, 50.018 94.221, 50.386 94.815 M 98.694 95.639 C 97.761 96.573, 98.888 98, 100.559 98 C 101.352 98, 102 97.325, 102 96.500 C 102 94.994, 99.889 94.444, 98.694 95.639 M 111.636 96.494 C 111.952 97.316, 112.620 97.735, 113.121 97.425 C 114.170 96.777, 113.328 95, 111.972 95 C 111.472 95, 111.321 95.672, 111.636 96.494 M 90.500 99 C 90.160 99.550, 90.359 100, 90.941 100 C 91.523 100, 92 99.550, 92 99 C 92 98.450, 91.802 98, 91.559 98 C 91.316 98, 90.840 98.450, 90.500 99 M 82 100 C 82 100.550, 82.450 101, 83 101 C 83.550 101, 84 100.550, 84 100 C 84 99.450, 83.550 99, 83 99 C 82.450 99, 82 99.450, 82 100 M 65.079 101.583 C 65.127 102.748, 65.364 102.985, 65.683 102.188 C 65.972 101.466, 65.936 100.603, 65.604 100.271 C 65.272 99.939, 65.036 100.529, 65.079 101.583 M 80.509 106.837 C 80.193 107.661, 80.399 108.799, 80.967 109.367 C 82.293 110.693, 82.320 113.316, 81 112.500 C 80.450 112.160, 80 112.332, 80 112.882 C 80 113.432, 80.450 114.160, 81 114.500 C 81.550 114.840, 82 115.568, 82 116.118 C 82 116.668, 81.480 116.797, 80.845 116.405 C 80.146 115.972, 79.962 116.129, 80.378 116.802 C 80.755 117.413, 81.725 117.659, 82.532 117.349 C 83.358 117.032, 84 117.354, 84 118.084 C 84 118.856, 84.595 118.596, 85.468 117.441 C 87.382 114.911, 87.398 110.575, 85.500 109 C 83.689 107.497, 83.490 105.588, 85.250 106.601 C 85.938 106.997, 86.153 106.939, 85.730 106.473 C 84.419 105.031, 81.114 105.262, 80.509 106.837 M 84 110.941 C 84 111.459, 84.450 112.160, 85 112.500 C 85.550 112.840, 86 112.416, 86 111.559 C 86 110.702, 85.550 110, 85 110 C 84.450 110, 84 110.423, 84 110.941 M 88 114.059 C 88 114.641, 88.450 114.840, 89 114.500 C 89.550 114.160, 90 113.684, 90 113.441 C 90 113.198, 89.550 113, 89 113 C 88.450 113, 88 113.477, 88 114.059 M 104.583 113.866 C 104.152 114.563, 104.070 115.403, 104.400 115.733 C 105.295 116.628, 106.271 115.312, 105.787 113.862 C 105.449 112.846, 105.213 112.846, 104.583 113.866 M 64.825 116.674 C 65.251 118.767, 65.503 119.019, 65.794 117.644 C 66.011 116.623, 65.751 115.351, 65.218 114.818 C 64.592 114.192, 64.452 114.849, 64.825 116.674 M 63.195 120.500 C 63.215 122.150, 63.439 122.704, 63.693 121.731 C 63.947 120.758, 63.930 119.408, 63.656 118.731 C 63.382 118.054, 63.175 118.850, 63.195 120.500 M 89 120.468 C 89 122.389, 96.243 122.621, 97.786 120.750 C 98.582 119.785, 97.698 119.436, 93.908 119.218 C 90.045 118.997, 89 119.263, 89 120.468 M 56.232 123 C 56.232 124.925, 56.438 125.713, 56.689 124.750 C 56.941 123.787, 56.941 122.213, 56.689 121.250 C 56.438 120.287, 56.232 121.075, 56.232 123 M 102.500 121 C 102.840 121.550, 102.529 122.014, 101.809 122.030 C 101.035 122.048, 101.246 122.494, 102.325 123.122 C 103.329 123.706, 104.416 123.917, 104.742 123.592 C 105.067 123.266, 104.822 123, 104.198 123 C 103.574 123, 103.322 122.325, 103.638 121.500 C 103.955 120.675, 103.689 120, 103.048 120 C 102.407 120, 102.160 120.450, 102.500 121 M 147 127.378 C 147 127.585, 147.787 128.373, 148.750 129.128 C 150.336 130.371, 150.371 130.336, 149.128 128.750 C 147.821 127.084, 147 126.555, 147 127.378 M 56.655 129.250 C 56.909 129.662, 58.666 130, 60.559 130 C 62.452 130, 64 129.662, 64 129.250 C 64 128.838, 62.243 128.500, 60.095 128.500 C 57.948 128.500, 56.400 128.838, 56.655 129.250 M 81.726 129.584 C 80.201 130.412, 78.401 130.757, 77.726 130.352 C 76.966 129.896, 77.032 130.272, 77.899 131.340 C 79.182 132.921, 79.081 132.981, 76.684 132.070 C 75.247 131.524, 73.835 131.458, 73.547 131.925 C 73.258 132.391, 73.919 133.007, 75.015 133.294 C 76.376 133.650, 76.807 134.338, 76.375 135.465 C 76.027 136.372, 75.125 136.878, 74.371 136.589 C 72.777 135.977, 72.489 138.566, 74.044 139.527 C 74.618 139.882, 75.788 139.591, 76.645 138.880 C 77.501 138.169, 78.854 137.492, 79.651 137.375 C 81.496 137.104, 84.212 134.879, 83.530 134.197 C 83.245 133.912, 81.997 134.535, 80.756 135.582 C 78.662 137.349, 78.672 137.291, 80.895 134.774 C 82.213 133.282, 83.610 132.259, 83.999 132.499 C 84.389 132.740, 85.214 131.826, 85.832 130.469 C 87.174 127.524, 85.994 127.270, 81.726 129.584 M 70 132.500 C 69.315 133.325, 68.045 134, 67.178 134 C 66.003 134, 65.889 134.289, 66.733 135.133 C 68.274 136.674, 70.604 135.622, 71.268 133.085 C 71.915 130.607, 71.666 130.492, 70 132.500 M 125 132.778 C 125 134.385, 128.911 136.952, 129.618 135.809 C 129.996 135.197, 129.476 134.090, 128.462 133.348 C 126.397 131.839, 125 131.609, 125 132.778 M 114.869 135.342 C 115.481 136.080, 115.765 136.984, 115.500 137.350 C 115.234 137.717, 115.514 137.602, 116.121 137.095 C 117.348 136.072, 116.476 134, 114.819 134 C 114.092 134, 114.108 134.426, 114.869 135.342 M 149.700 138.341 C 149.417 139.078, 149.587 140.316, 150.077 141.091 C 150.727 142.116, 150.974 141.751, 150.985 139.750 C 151.001 136.764, 150.511 136.226, 149.700 138.341 M 41.158 141 C 41.158 142.375, 41.385 142.938, 41.662 142.250 C 41.940 141.563, 41.940 140.438, 41.662 139.750 C 41.385 139.063, 41.158 139.625, 41.158 141 M 58.636 142.494 C 58.952 143.316, 59.620 143.735, 60.121 143.425 C 61.170 142.777, 60.328 141, 58.972 141 C 58.472 141, 58.321 141.672, 58.636 142.494 M 135 143 C 133.667 143.862, 133.667 143.963, 135 143.914 C 135.825 143.884, 137.400 143.473, 138.500 143 L 140.500 142.141 138.500 142.086 C 137.400 142.055, 135.825 142.467, 135 143 M 80.601 148.836 C 80.315 149.300, 81.701 149.740, 83.682 149.814 C 87.735 149.967, 87.777 149.587, 83.811 148.637 C 82.332 148.283, 80.888 148.372, 80.601 148.836 M 106.250 149.706 C 105.013 149.944, 104 150.495, 104 150.931 C 104 151.366, 105.125 151.508, 106.500 151.245 C 107.875 150.982, 109 150.369, 109 149.883 C 109 149.398, 108.888 149.061, 108.750 149.136 C 108.612 149.211, 107.487 149.467, 106.250 149.706 M 99 150.941 C 99 152.617, 100.774 153.033, 101.364 151.494 C 101.712 150.587, 101.361 150, 100.469 150 C 99.661 150, 99 150.423, 99 150.941 M 113.750 150.662 C 114.438 150.940, 115.563 150.940, 116.250 150.662 C 116.938 150.385, 116.375 150.158, 115 150.158 C 113.625 150.158, 113.063 150.385, 113.750 150.662 M 91.750 153.662 C 92.438 153.940, 93.563 153.940, 94.250 153.662 C 94.938 153.385, 94.375 153.158, 93 153.158 C 91.625 153.158, 91.063 153.385, 91.750 153.662 M 102.750 154.662 C 103.438 154.940, 104.563 154.940, 105.250 154.662 C 105.938 154.385, 105.375 154.158, 104 154.158 C 102.625 154.158, 102.063 154.385, 102.750 154.662 M 112.750 155.758 C 110.860 156.178, 110.160 162, 112 162 C 112.550 162, 113 160.845, 113 159.433 C 113 157.320, 113.355 156.978, 115 157.500 C 116.100 157.849, 117 157.703, 117 157.174 C 117 155.936, 114.979 155.263, 112.750 155.758 M 43.557 158.250 C 44.497 161.308, 44.842 161.558, 46.217 160.183 C 48.064 158.336, 49 158.778, 49 161.500 C 49 163.049, 49.567 164, 50.491 164 C 51.311 164, 52.998 165.573, 54.241 167.496 C 56.718 171.328, 58.935 172.473, 62 171.500 C 64.686 170.647, 64.555 168.963, 61.825 169.262 C 60.245 169.435, 58.845 168.316, 56.707 165.174 C 55.089 162.794, 53.065 160.578, 52.209 160.250 C 51.353 159.922, 49.831 158.831, 48.826 157.826 C 47.822 156.822, 46.070 156, 44.933 156 C 43.250 156, 42.994 156.419, 43.557 158.250 M 140 156.774 C 140 157.238, 139.374 158.474, 138.608 159.521 C 137.517 161.014, 136.914 161.173, 135.814 160.260 C 133.992 158.748, 122.774 162.831, 123.478 164.750 C 123.731 165.438, 123.250 166, 122.410 166 C 121.569 166, 121.148 166.430, 121.473 166.956 C 121.798 167.482, 122.730 167.657, 123.545 167.344 C 124.359 167.032, 125.673 167.314, 126.465 167.971 C 127.353 168.708, 128.784 168.867, 130.202 168.387 C 131.466 167.958, 133.063 167.716, 133.750 167.848 C 134.438 167.980, 135 167.570, 135 166.937 C 135 166.304, 135.675 166.045, 136.500 166.362 C 138.242 167.030, 138.483 165.883, 136.927 164.327 C 136.162 163.562, 136.611 163.064, 138.484 162.593 C 140.585 162.066, 140.982 161.518, 140.458 159.868 C 139.903 158.118, 140.123 157.904, 141.901 158.469 C 144.565 159.314, 144.626 158.405, 142 157 C 140.900 156.411, 140 156.309, 140 156.774 M 91.105 158.373 C 89.763 159.990, 90.660 163, 92.485 163 C 94.413 163, 96.113 160.458, 95.410 158.627 C 94.648 156.640, 92.642 156.522, 91.105 158.373 M 104.362 158.500 C 103.504 160.734, 104.697 163.002, 106.719 162.985 C 108.113 162.973, 108.202 162.781, 107.130 162.102 C 106.015 161.395, 106.088 161.050, 107.520 160.249 C 108.489 159.707, 108.966 158.754, 108.581 158.132 C 107.581 156.513, 105.039 156.735, 104.362 158.500 M 146 158 C 147.958 159.266, 149.282 159.266, 148.500 158 C 148.160 157.450, 147.121 157.007, 146.191 157.015 C 144.734 157.029, 144.707 157.165, 146 158 M 92.729 158.604 C 92.328 159.005, 92 160.023, 92 160.867 C 92 161.992, 92.296 162.104, 93.112 161.288 C 93.724 160.676, 94.052 159.657, 93.842 159.025 C 93.631 158.393, 93.130 158.203, 92.729 158.604 M 105 159 C 105 159.550, 105.450 160, 106 160 C 106.550 160, 107 159.550, 107 159 C 107 158.450, 106.550 158, 106 158 C 105.450 158, 105 158.450, 105 159 M 136 159.059 C 136 159.641, 136.450 159.840, 137 159.500 C 137.550 159.160, 138 158.684, 138 158.441 C 138 158.198, 137.550 158, 137 158 C 136.450 158, 136 158.477, 136 159.059 M 75.732 163.200 C 75.475 163.915, 75.993 165.772, 76.883 167.326 C 78.282 169.772, 79.005 170.105, 82.250 169.800 C 84.313 169.606, 86 169.797, 86 170.224 C 86 170.651, 87.800 171, 90 171 C 92.200 171, 94 170.564, 94 170.031 C 94 169.499, 94.749 169.350, 95.664 169.701 C 96.800 170.137, 97.093 169.960, 96.589 169.143 C 96.182 168.485, 95.321 168.012, 94.675 168.092 C 94.029 168.172, 91.602 168.184, 89.281 168.118 C 85.970 168.025, 85.187 167.677, 85.638 166.500 C 86.061 165.400, 85.510 165, 83.572 165 C 82.119 165, 79.865 164.303, 78.565 163.450 C 76.691 162.223, 76.103 162.171, 75.732 163.200 M 129 163 C 129 163.550, 129.477 164, 130.059 164 C 130.641 164, 130.840 163.550, 130.500 163 C 130.160 162.450, 129.684 162, 129.441 162 C 129.198 162, 129 162.450, 129 163 M 67.813 163.683 C 68.534 163.972, 69.397 163.936, 69.729 163.604 C 70.061 163.272, 69.471 163.036, 68.417 163.079 C 67.252 163.127, 67.015 163.364, 67.813 163.683 M 59 165.500 C 59 166.325, 59.788 167.007, 60.750 167.015 C 62.246 167.028, 62.282 167.172, 61 168 C 60.099 168.582, 59.975 168.975, 60.691 168.985 C 62.578 169.009, 63.285 167.049, 61.964 165.456 C 60.401 163.574, 59 163.594, 59 165.500 M 81 166.393 C 81 166.609, 81.698 167.054, 82.552 167.382 C 83.442 167.723, 83.843 167.555, 83.493 166.989 C 82.906 166.038, 81 165.583, 81 166.393 M 42 167.941 C 42 168.459, 42.445 169.157, 42.989 169.493 C 43.555 169.843, 43.723 169.442, 43.382 168.552 C 42.717 166.820, 42 166.503, 42 167.941 M 104.510 170.016 C 104.856 170.575, 105.557 170.774, 106.069 170.457 C 107.456 169.600, 107.198 169, 105.441 169 C 104.584 169, 104.165 169.457, 104.510 170.016 M 117.114 174.363 C 116.198 175.466, 116.459 175.635, 118.480 175.249 C 119.853 174.986, 120.730 174.373, 120.429 173.886 C 119.644 172.616, 118.417 172.792, 117.114 174.363 M 124.750 175.031 C 125.987 175.529, 127 176.475, 127 177.134 C 127 177.794, 127.289 178.044, 127.643 177.691 C 128.617 176.716, 125.977 173.991, 124.128 174.063 C 123.026 174.106, 123.227 174.419, 124.750 175.031 M 135 176.059 C 135 176.641, 135.450 176.840, 136 176.500 C 136.550 176.160, 137 175.684, 137 175.441 C 137 175.198, 136.550 175, 136 175 C 135.450 175, 135 175.477, 135 176.059 M 98.500 178 C 98.840 178.550, 99.316 179, 99.559 179 C 99.802 179, 100 178.550, 100 178 C 100 177.450, 99.523 177, 98.941 177 C 98.359 177, 98.160 177.450, 98.500 178 M 108.500 178 C 108.840 178.550, 109.316 179, 109.559 179 C 109.802 179, 110 178.550, 110 178 C 110 177.450, 109.523 177, 108.941 177 C 108.359 177, 108.160 177.450, 108.500 178" stroke="none" fill="black" fill-rule="evenodd"/>
</svg>